<svg width="21" height="19" viewBox="0 0 21 19" fill="none" xmlns="http://www.w3.org/2000/svg">
<path d="M11.8247 17.8288C11.0682 18.4976 9.9318 18.4976 9.17528 17.8288L8.9775 17.654C7.21 16.0836 5.74875 14.7289 4.59375 13.5899C3.43875 12.451 2.52 11.4328 1.8375 10.5354C1.155 9.6208 0.67375 8.78383 0.39375 8.02452C0.13125 7.26521 0 6.48865 0 5.69482C0 4.07266 0.55125 2.71798 1.65375 1.63079C2.75625 0.543597 4.13 0 5.775 0C6.685 0 7.55125 0.189827 8.37375 0.569482C8.84187 0.785558 9.27314 1.05194 9.66756 1.36864C10.144 1.75118 10.856 1.75118 11.3324 1.36864C11.7269 1.05194 12.1581 0.785558 12.6263 0.569482C13.4488 0.189827 14.315 0 15.225 0C16.87 0 18.2437 0.543597 19.3463 1.63079C20.4487 2.71798 21 4.07266 21 5.69482C21 6.48865 20.86 7.26521 20.58 8.02452C20.3175 8.78383 19.845 9.6208 19.1625 10.5354C18.48 11.4328 17.5613 12.451 16.4063 13.5899C15.2513 14.7289 13.79 16.0836 12.0225 17.654L11.8247 17.8288Z" fill="black"/>
</svg>
