<svg width="21" height="21" viewBox="0 0 21 21" fill="none" xmlns="http://www.w3.org/2000/svg">
<path d="M8.5 0C13.1944 0 17 3.80558 17 8.5C17 9.93707 16.6413 11.2898 16.0117 12.4766L19.5566 16.0205C20.3377 16.8016 20.3377 18.0686 19.5566 18.8496L18.8496 19.5566C18.0686 20.3377 16.8016 20.3377 16.0205 19.5566L12.4766 16.0117C11.2898 16.6413 9.93707 17 8.5 17C3.80558 17 0 13.1944 0 8.5C0 3.80558 3.80558 0 8.5 0ZM8.5 4C6.01472 4 4 6.01472 4 8.5C4 10.9853 6.01472 13 8.5 13C10.9853 13 13 10.9853 13 8.5C13 6.01472 10.9853 4 8.5 4Z" fill="black"/>
</svg>
