<svg width="45" height="45" viewBox="0 0 45 45" fill="none" xmlns="http://www.w3.org/2000/svg">
<circle cx="22.5" cy="22.5" r="22.5" fill="#707070"/>
<path d="M20 27V31C20 32.1046 20.8954 33 22 33H23C24.1046 33 25 32.1046 25 31V27C25 25.8954 25.8954 25 27 25H31C32.1046 25 33 24.1046 33 23V22C33 20.8954 32.1046 20 31 20H27C25.8954 20 25 19.1046 25 18V14C25 12.8954 24.1046 12 23 12H22C20.8954 12 20 12.8954 20 14V18C20 19.1046 19.1046 20 18 20H14C12.8954 20 12 20.8954 12 22V23C12 24.1046 12.8954 25 14 25H18C19.1046 25 20 25.8954 20 27Z" fill="black"/>
</svg>
