<svg width="45" height="45" viewBox="0 0 45 45" fill="none" xmlns="http://www.w3.org/2000/svg">
<circle cx="22.5" cy="22.5" r="22.5" fill="#707070"/>
<path d="M23.8247 31.8288C23.0682 32.4976 21.9318 32.4976 21.1753 31.8288L20.9775 31.654C19.21 30.0836 17.7488 28.7289 16.5938 27.5899C15.4388 26.451 14.52 25.4328 13.8375 24.5354C13.155 23.6208 12.6738 22.7838 12.3938 22.0245C12.1313 21.2652 12 20.4886 12 19.6948C12 18.0727 12.5513 16.718 13.6538 15.6308C14.7563 14.5436 16.13 14 17.775 14C18.685 14 19.5513 14.1898 20.3738 14.5695C20.8419 14.7856 21.2731 15.0519 21.6676 15.3686C22.144 15.7512 22.856 15.7512 23.3324 15.3686C23.7269 15.0519 24.1581 14.7856 24.6263 14.5695C25.4488 14.1898 26.315 14 27.225 14C28.87 14 30.2437 14.5436 31.3463 15.6308C32.4487 16.718 33 18.0727 33 19.6948C33 20.4886 32.86 21.2652 32.58 22.0245C32.3175 22.7838 31.845 23.6208 31.1625 24.5354C30.48 25.4328 29.5613 26.451 28.4063 27.5899C27.2513 28.7289 25.79 30.0836 24.0225 31.654L23.8247 31.8288Z" fill="black"/>
</svg>
